<svg xmlns="http://www.w3.org/2000/svg" id="katman_1" version="1.1" viewBox="0 0 500 500"><defs><style>.st0{fill:none;stroke:#fff;stroke-miterlimit:10;stroke-width:3.8px}path,rect{fill:#fff!important;stroke:#fff!important}</style></defs><g><g><path d="M317.8,110.1s-28.7,51.7-35.1,67.7c0,0-47-21.4-59.8-42.2,0,0,50.5-45.1,94.9-25.5Z"/><path d="M256.8,94.5s-34.5,13.9-46.8,26.8c0,0-6.7-3-13.5-16.4,0,0,38.4-14.7,60.3-10.4Z"/><path d="M208.1,148.1s44.2,40,66.3,48.4l-24.7,51.7s-84.9-39.5-84.2-41.4c0,0,18.5-33,42.6-58.6Z"/><path d="M194.8,134.6s-40.2,40.5-45.4,64l-39.8-19.1s22.3-45.2,68-65.8l17.2,20.9Z"/><path d="M160.3,220.8l80.8,40.4-23.6,50.5s-48.9-21.8-77.2-21.3c0,0,.3-39.6,20-69.6Z"/><path d="M141.1,212l-37.9-18.8s-19.9,37.9-11.3,93.8l27.9.6s10.8-63.3,21.3-75.7Z"/><path d="M118.6,307.7s.8,37.7,6.1,50.3c0,0-30.4-31.8-27.2-51.1,0,0,14.8,3.3,21.1.8Z"/><path d="M137.8,308.9s58,10.6,70,20.8l-32.1,70.3s-41.7-21.3-37.9-91.1Z"/></g><g><path d="M327.5,114.4s-22.5,54.7-30.9,69.8c0,0,46.1,23.3,70.3,20.3,0,0,3.7-67.6-39.4-90Z"/><path d="M377.8,152.2s10.8,35.6,8.3,53.3c0,0,6.6,3.3,21.3.3,0,0-12.5-39.1-29.6-53.6Z"/><path d="M366.4,223.7s-58.9-9.5-79.2-21.6l-24.9,51.6s83.9,41.6,85,39.9c0,0,14.2-35.1,19.1-69.9Z"/><path d="M385.3,225.6s-6.5,56.6-21.6,75.5l39.8,19.1s21.3-45.6,8.9-94.2l-27.1-.4Z"/><path d="M339.5,306.5l-82-37.8-24.6,50s47.6,24.6,64.8,46.9c0,0,30.7-24.9,41.8-59.1Z"/><path d="M358.4,315.9l38.3,17.9s-17.2,39.2-66.1,67.5l-17.9-21.4s42.6-48,45.7-63.9Z"/><path d="M297.8,393.4s-29.9,22.9-43.1,26.7c0,0,43.8,3.9,56.9-10.7,0,0-11.8-9.5-13.9-16Z"/><path d="M284.7,379.1s-44.5-38.7-59.9-41.7l-34.9,69s42.7,19.3,94.8-27.3Z"/></g></g><path d="M186.9,335.2"/><circle cx="250.2" cy="250.4" r="246.6" class="st0"/><rect width="17.6" height="34.5" x="243.2" y="29.4" rx="8.1" ry="8.1" transform="translate(-1.4 8.5) rotate(-1.9)"/><rect width="17.6" height="34.5" x="453.3" y="238.1" rx="8.1" ry="8.1" transform="translate(717.5 -206.7) rotate(90)"/><rect width="17.6" height="34.5" x="243.3" y="443.3" rx="8.1" ry="8.1" transform="translate(530.3 905.9) rotate(176.7)"/><rect width="17.6" height="34.5" x="27.1" y="238.6" rx="8.1" ry="8.1" transform="translate(-220 291.7) rotate(-90)"/><rect width="8.9" height="25.7" x="57.3" y="146.1" rx="3.9" ry="3.9" transform="translate(-108 143.3) rotate(-63.5)"/><rect width="8.9" height="25.7" x="131.3" y="66.3" rx="3.9" ry="3.9" transform="translate(-21.4 78.5) rotate(-30)"/><rect width="8.9" height="25.7" x="357" y="61.3" rx="3.9" ry="3.9" transform="translate(85.5 -170.8) rotate(30)"/><rect width="8.9" height="25.7" x="431.1" y="140.5" rx="3.9" ry="3.9" transform="translate(371.9 -304.1) rotate(62.7)"/><rect width="8.9" height="25.7" x="424.2" y="343.8" rx="3.9" ry="3.9" transform="translate(951.9 163.7) rotate(120)"/><rect width="8.9" height="25.7" x="344.8" y="424.3" rx="3.9" ry="3.9" transform="translate(879.6 615.5) rotate(147.2)"/><rect width="8.9" height="25.7" x="143.4" y="429.7" rx="3.9" ry="3.9" transform="translate(34.7 895.2) rotate(-147.5)"/><rect width="8.9" height="25.7" x="64.3" y="349.2" rx="3.9" ry="3.9" transform="translate(-210.3 602.6) rotate(-120)"/></svg>